<?xml version="1.0" standalone="no"?>
<!DOCTYPE svg PUBLIC "-//W3C//DTD SVG 20010904//EN"
 "http://www.w3.org/TR/2001/REC-SVG-20010904/DTD/svg10.dtd">
<svg version="1.0" xmlns="http://www.w3.org/2000/svg"
 width="500.000000pt" height="500.000000pt" viewBox="0 0 500.000000 500.000000"
 preserveAspectRatio="xMidYMid meet">

<g transform="translate(0.000000,500.000000) scale(0.100000,-0.100000)"
fill="#000000" stroke="none">
<path d="M1675 3670 c-29 -11 -86 -77 -122 -140 -17 -30 -81 -161 -141 -290
-108 -230 -161 -334 -167 -328 -2 2 -49 107 -105 233 -130 294 -195 419 -246
472 -66 70 -116 53 -150 -50 -21 -64 -14 -155 20 -257 28 -80 206 -446 288
-593 37 -65 48 -94 44 -112 -4 -14 -61 -145 -128 -293 -147 -326 -206 -464
-217 -512 -11 -50 4 -161 29 -210 25 -50 72 -80 123 -80 75 0 117 78 117 215
0 60 26 137 85 255 21 41 55 113 76 160 l38 85 14 -35 c160 -392 215 -503 292
-587 60 -67 114 -98 187 -108 41 -6 50 -4 72 18 29 29 41 93 33 176 -6 72 -21
102 -98 190 -48 57 -84 117 -179 308 -112 227 -160 335 -174 396 -5 23 16 71
116 265 211 410 247 484 288 589 45 113 49 163 20 211 -17 27 -25 32 -57 31
-21 0 -47 -4 -58 -9z"/>
<path d="M3630 3643 c-82 -14 -197 -51 -278 -90 -160 -78 -301 -230 -389 -419
-74 -161 -122 -441 -109 -634 19 -281 147 -560 349 -763 174 -173 328 -243
537 -241 128 1 205 19 325 79 266 132 464 425 520 769 17 106 20 359 5 473
-51 384 -197 633 -445 758 -111 56 -206 75 -359 74 -72 -1 -142 -4 -156 -6z
m263 -323 c229 -33 400 -214 473 -500 26 -104 27 -395 2 -488 -88 -316 -351
-512 -672 -500 -91 3 -108 7 -176 39 -285 135 -474 493 -439 831 18 178 71
291 193 414 91 90 142 122 266 165 124 43 239 55 353 39z"/>
<path d="M2143 3146 c-96 -31 -145 -97 -145 -195 0 -64 12 -99 50 -155 19 -28
23 -41 14 -44 -37 -12 -111 -75 -137 -117 -26 -42 -30 -57 -30 -124 1 -65 5
-84 30 -129 30 -55 78 -95 145 -123 23 -9 73 -14 145 -14 100 0 115 2 167 28
l57 28 39 -26 c45 -30 124 -42 165 -26 25 10 28 15 23 41 -19 97 -15 90 -55
90 -54 0 -64 15 -40 61 26 51 49 152 49 217 l0 52 -69 0 -68 0 -6 -77 c-10
-141 -11 -141 -105 -16 -45 61 -82 113 -82 116 0 4 19 16 43 28 51 26 103 73
125 114 9 17 16 56 16 90 1 75 -26 124 -91 162 -55 32 -172 41 -240 19z m161
-138 c20 -28 20 -87 1 -115 -20 -28 -82 -66 -95 -58 -20 12 -50 84 -50 120 0
50 28 75 84 75 35 0 48 -5 60 -22z m-60 -483 c47 -60 86 -113 86 -117 0 -14
-82 -29 -125 -23 -94 15 -140 70 -133 162 4 42 11 60 33 83 34 36 23 44 139
-105z"/>
<path d="M362 1018 l3 -153 33 -3 c35 -4 45 16 12 25 -19 5 -20 14 -20 144 0
118 -2 139 -15 139 -13 0 -15 -21 -13 -152z"/>
<path d="M1113 1154 c-7 -20 17 -37 34 -23 15 13 6 39 -13 39 -8 0 -17 -7 -21
-16z"/>
<path d="M1797 1164 c-14 -15 -6 -34 14 -34 14 0 19 5 17 17 -3 18 -20 27 -31
17z"/>
<path d="M131 1142 c-87 -47 -96 -197 -16 -260 20 -16 42 -22 77 -22 41 0 54
5 79 29 16 16 29 34 29 40 0 16 -23 26 -28 12 -14 -42 -77 -64 -127 -45 -45
18 -62 149 -25 197 11 14 33 28 48 32 32 7 80 -8 96 -30 7 -10 16 -12 25 -6
13 8 13 12 0 27 -17 21 -70 44 -101 44 -13 0 -39 -8 -57 -18z"/>
<path d="M3943 1153 c-33 -6 -72 -51 -84 -96 -27 -102 27 -197 113 -197 24 0
54 7 66 16 20 14 22 14 22 0 0 -9 7 -16 15 -16 12 0 15 16 15 80 l0 80 -55 0
c-42 0 -55 -3 -55 -15 0 -11 11 -15 40 -15 38 0 40 -2 40 -30 0 -55 -63 -87
-125 -64 -41 16 -60 126 -30 183 25 50 112 65 146 25 11 -14 39 -20 39 -8 0
19 -24 43 -51 53 -32 11 -55 12 -96 4z"/>
<path d="M1530 1135 c0 -11 12 -15 45 -15 l45 0 0 -130 c0 -109 2 -130 15
-130 13 0 15 21 15 130 l0 130 45 0 c33 0 45 4 45 15 0 12 -18 15 -105 15 -87
0 -105 -3 -105 -15z"/>
<path d="M2210 1135 c0 -11 12 -15 45 -15 l45 0 0 -130 c0 -109 2 -130 15
-130 13 0 15 21 15 130 l0 130 45 0 c33 0 45 4 45 15 0 12 -18 15 -105 15 -87
0 -105 -3 -105 -15z"/>
<path d="M3002 1138 c3 -7 25 -14 51 -16 l47 -3 0 -130 c0 -108 2 -129 15
-129 13 0 15 21 15 130 l0 130 45 0 c33 0 45 4 45 15 0 12 -19 15 -111 15 -84
0 -110 -3 -107 -12z"/>
<path d="M530 1083 c-35 -11 -60 -27 -60 -40 0 -17 15 -16 45 3 32 21 75 11
75 -16 0 -21 -27 -40 -58 -40 -57 0 -93 -78 -54 -113 23 -21 85 -22 103 -1 11
14 13 14 21 0 5 -9 20 -16 33 -16 27 0 34 17 10 26 -11 5 -15 23 -15 79 0 55
-4 78 -17 93 -19 21 -58 33 -83 25z m65 -141 c-9 -41 -38 -66 -68 -58 -29 7
-41 31 -28 54 8 15 89 44 99 36 2 -1 1 -16 -3 -32z"/>
<path d="M745 1083 c-30 -7 -55 -33 -55 -58 0 -29 26 -51 77 -64 48 -13 57
-23 48 -51 -5 -15 -15 -20 -44 -20 -22 0 -44 6 -51 15 -10 12 -16 13 -27 3
-25 -20 19 -48 77 -48 53 0 80 21 80 62 0 32 -24 53 -76 67 -45 12 -62 35 -43
57 14 17 40 18 74 2 30 -13 45 -3 24 16 -17 16 -56 25 -84 19z"/>
<path d="M933 1075 c-28 -12 -33 -19 -33 -50 0 -37 0 -37 93 -74 21 -8 28 -17
25 -34 -4 -28 -58 -36 -93 -13 -17 12 -26 13 -31 4 -12 -20 35 -48 80 -48 47
0 58 6 75 38 20 38 -5 73 -64 91 -38 12 -51 21 -53 38 -4 28 37 41 75 24 18
-8 29 -9 36 -2 7 7 -1 15 -26 26 -43 18 -43 18 -84 0z"/>
<path d="M1270 1072 c-46 -23 -62 -55 -57 -116 6 -65 39 -96 101 -96 33 0 48
6 66 26 20 21 22 27 10 34 -10 6 -18 3 -28 -11 -16 -23 -74 -26 -95 -4 -41 41
-23 136 29 149 20 5 35 2 55 -13 27 -20 39 -19 39 6 0 12 -55 43 -77 43 -4 0
-24 -8 -43 -18z"/>
<path d="M1950 1072 c-46 -23 -62 -55 -57 -116 6 -65 39 -96 101 -96 33 0 48
6 66 26 20 21 22 27 10 34 -10 6 -18 3 -28 -11 -16 -23 -74 -26 -95 -4 -41 41
-23 136 29 149 20 5 35 2 55 -13 27 -20 39 -19 39 6 0 12 -55 43 -77 43 -4 0
-24 -8 -43 -18z"/>
<path d="M2504 1076 c-18 -8 -34 -19 -38 -24 -11 -19 11 -22 43 -6 36 18 60
16 75 -8 15 -24 0 -36 -60 -51 -61 -15 -83 -50 -62 -94 10 -22 21 -29 51 -31
23 -2 48 3 62 12 20 13 24 13 29 1 7 -20 46 -19 46 0 0 8 -7 15 -15 15 -12 0
-15 15 -15 78 0 87 -4 96 -43 111 -35 13 -35 13 -73 -3z m76 -165 c-22 -42
-90 -35 -90 10 0 21 12 30 60 44 32 10 35 9 38 -12 2 -12 -2 -31 -8 -42z"/>
<path d="M2763 1083 c-41 -8 -73 -59 -73 -115 0 -41 5 -54 29 -79 40 -39 100
-41 138 -3 20 20 23 28 12 34 -8 6 -18 2 -27 -11 -9 -13 -25 -19 -53 -19 -35
0 -41 4 -55 34 -19 39 -13 96 12 117 22 18 70 15 93 -5 20 -19 35 -8 25 18 -8
21 -61 36 -101 29z"/>
<path d="M3323 1079 c-65 -19 -86 -130 -37 -188 22 -27 32 -31 74 -31 42 0 52
4 74 31 43 50 32 153 -18 177 -35 18 -59 20 -93 11z m87 -45 c19 -19 20 -105
1 -127 -17 -21 -84 -22 -101 -2 -18 21 -24 89 -10 114 21 41 75 48 110 15z"/>
<path d="M3584 1083 c-12 -2 -32 -15 -45 -29 -20 -21 -24 -36 -24 -84 0 -79
27 -110 97 -110 35 0 53 5 69 21 28 28 9 51 -20 25 -13 -12 -31 -16 -57 -14
-32 3 -40 8 -51 36 l-13 32 80 0 80 0 0 34 c0 59 -54 100 -116 89z m66 -43
c37 -37 26 -50 -40 -50 -53 0 -60 2 -60 19 0 22 35 51 62 51 10 0 27 -9 38
-20z"/>
<path d="M4220 1083 c-35 -11 -60 -27 -60 -40 0 -17 15 -16 45 3 32 21 75 11
75 -16 0 -21 -27 -40 -58 -40 -57 0 -93 -78 -54 -113 23 -21 85 -22 103 -1 11
14 13 14 21 0 5 -9 20 -16 33 -16 27 0 34 17 10 26 -11 5 -15 23 -15 79 0 55
-4 78 -17 93 -19 21 -58 33 -83 25z m65 -141 c-9 -41 -38 -66 -68 -58 -29 7
-41 31 -28 54 8 15 89 44 99 36 2 -1 1 -16 -3 -32z"/>
<path d="M4480 1083 c-8 -3 -23 -12 -32 -21 -16 -14 -18 -13 -18 1 0 10 -7 17
-15 17 -12 0 -15 -19 -15 -110 0 -91 3 -110 15 -110 12 0 15 16 15 80 0 67 3
83 20 100 23 23 50 26 68 8 8 -8 12 -45 12 -100 0 -68 3 -88 14 -88 10 0 15
21 18 82 4 69 8 84 28 100 54 44 80 12 80 -98 0 -68 3 -84 15 -84 12 0 15 17
15 93 0 81 -3 96 -20 112 -26 24 -74 23 -100 0 -18 -17 -22 -17 -33 -3 -14 19
-46 28 -67 21z"/>
<path d="M4834 1083 c-12 -2 -32 -15 -45 -29 -20 -21 -24 -36 -24 -84 0 -79
27 -110 97 -110 35 0 53 5 69 21 28 28 9 51 -20 25 -13 -12 -31 -16 -57 -14
-32 3 -40 8 -51 36 l-13 32 80 0 80 0 0 34 c0 59 -54 100 -116 89z m66 -43
c37 -37 26 -50 -40 -50 -53 0 -60 2 -60 19 0 22 35 51 62 51 10 0 27 -9 38
-20z"/>
<path d="M1120 970 c0 -91 3 -110 15 -110 12 0 15 19 15 110 0 91 -3 110 -15
110 -12 0 -15 -19 -15 -110z"/>
<path d="M1790 970 c0 -103 1 -110 20 -110 19 0 20 7 20 110 0 103 -1 110 -20
110 -19 0 -20 -7 -20 -110z"/>
</g>
</svg>
